<svg width="40" height="40" viewBox="0 0 40 40" fill="none" xmlns="http://www.w3.org/2000/svg">
<g clip-path="url(#clip0_180_101)">
<circle cx="20" cy="20" r="20" fill="url(#paint0_linear_180_101)"/>
<path d="M8.08324 26.2209V26.996C8.08332 27.4247 8.43078 27.7722 8.85945 27.7724H30.7654C31.1941 27.7723 31.5416 27.4247 31.5417 26.996V26.2209H8.08324Z" fill="#11283B"/>
<path d="M29.3525 13.7502V13.761L28.603 13.7564L28.602 13.7564L28.6014 13.7564L28.5979 13.7564H28.5978L28.5932 13.7564L11.0131 13.7564C10.9986 13.7564 10.9867 13.7682 10.9866 13.7828M29.3525 13.7502L14.3595 24.495C14.4974 24.606 14.6691 24.6666 14.8462 24.6667M29.3525 13.7502C29.3536 13.7502 29.3547 13.7502 29.3558 13.7502C29.697 13.7506 29.9499 13.7509 30.1992 13.7918L30.2279 13.7965L30.2567 13.799C30.9957 13.8621 31.6064 14.2364 31.9007 14.7957C32.2249 15.4117 32.2882 16.263 32.033 17.4215C31.7643 18.6406 30.6676 19.5459 29.4305 19.8852C29.3471 19.908 29.2784 19.928 29.2185 19.9453C29.0556 19.9925 28.9579 20.0209 28.8056 20.0388L29.3525 13.7502ZM10.9866 13.7828L10.2366 13.78M10.9866 13.7828L10.2366 13.78M10.9866 13.7828C10.9771 16.3546 11.1012 18.1856 11.6518 19.7555L10.9441 20.0037L11.6518 19.7555C12.1902 21.2905 13.1748 22.5788 14.8298 23.9108L14.8298 23.9108C14.8345 23.9146 14.8404 23.9167 14.8464 23.9167M10.2366 13.78C10.2382 13.3523 10.5853 13.0065 11.013 13.0064L10.2366 13.78ZM14.8464 23.9167H14.8462V24.6667M14.8464 23.9167L14.8462 24.6667M14.8464 23.9167H24.7245M14.8462 24.6667H24.7246M24.7246 24.6667L24.7245 23.9167M24.7246 24.6667C24.913 24.6666 25.095 24.5981 25.2366 24.4738L28.8055 20.0388C28.7595 20.0442 28.7076 20.0464 28.6499 20.0445L29.2387 19.883C29.2822 19.8711 29.2993 19.8665 29.3175 19.8615C29.3373 19.8561 29.3585 19.8504 29.4167 19.8344L29.4167 19.8344C30.0037 19.6734 30.5691 19.346 31.0165 18.9425C31.4566 18.5457 31.8482 18.0148 31.9814 17.4102C32.2253 16.3038 32.1647 15.4098 31.8542 14.8199C31.7123 14.5502 31.5125 14.2934 31.1977 14.1104C30.9029 13.939 30.5722 13.8708 30.2342 13.8455C29.9593 13.8159 29.6718 13.8105 29.4302 13.806L29.3967 13.8054L28.6223 13.7907L28.6326 14.5652C28.6579 16.4687 28.5996 17.8263 28.3126 18.9784L28.0631 19.9799L28.0092 19.9735L27.7711 20.4369C27.193 21.5617 26.2525 22.5853 24.7421 23.91L24.742 23.9101C24.7372 23.9143 24.7309 23.9167 24.7245 23.9167M24.7246 24.6667V23.9167H24.7245" stroke="#11283B" stroke-width="1.5"/>
</g>
<defs>
<linearGradient id="paint0_linear_180_101" x1="-13.3333" y1="-1.57748e-06" x2="62.0991" y2="68.4019" gradientUnits="userSpaceOnUse">
<stop stop-color="#04C9E4"/>
<stop offset="1" stop-color="#3F75FF"/>
</linearGradient>
<clipPath id="clip0_180_101">
<rect width="40" height="40" fill="white"/>
</clipPath>
</defs>
</svg>
