<svg width="40" height="40" viewBox="0 0 40 40" fill="none" xmlns="http://www.w3.org/2000/svg">
<g clip-path="url(#clip0_315_1900)">
<mask id="mask0_315_1900" style="mask-type:luminance" maskUnits="userSpaceOnUse" x="0" y="0" width="40" height="40">
<path d="M40 0H0V40H40V0Z" fill="white"/>
</mask>
<g mask="url(#mask0_315_1900)">
<path d="M20 40C31.0457 40 40 31.0457 40 20C40 8.9543 31.0457 0 20 0C8.9543 0 0 8.9543 0 20C0 31.0457 8.9543 40 20 40Z" fill="url(#paint0_linear_315_1900)"/>
<path d="M8.08301 26.2208V26.996C8.08309 27.4246 8.43055 27.7722 8.85922 27.7723H30.7652C31.1939 27.7722 31.5414 27.4247 31.5415 26.996V26.2208H8.08301Z" fill="#11283B"/>
</g>
<path d="M11.0005 14.0326C11.0006 14.018 11.0125 14.0062 11.027 14.0062H28.6071H28.6117H28.6153H28.6169L29.3664 14.0108V14H29.3697C29.7109 14.0004 29.9638 14.0007 30.2132 14.0416L30.2418 14.0463L30.2707 14.0488C31.0096 14.1119 31.6203 14.4862 31.9146 15.0455C32.2388 15.6615 32.3022 16.5128 32.0469 17.6713C31.7782 18.8904 30.6815 19.7957 29.4444 20.135C29.361 20.1578 29.2923 20.1778 29.2324 20.1951C29.0695 20.2423 28.9718 20.2707 28.8194 20.2886C28.7734 20.294 28.7215 20.2962 28.6638 20.2943L29.2526 20.1328C29.2947 20.1213 29.3124 20.1165 29.3312 20.1113C29.3518 20.1057 29.3738 20.0998 29.4306 20.0842C30.0177 19.9232 30.583 19.5958 31.0304 19.1923C31.4705 18.7955 31.8621 18.2646 31.9953 17.66C32.2392 16.5536 32.1786 15.6596 31.8682 15.0697C31.7262 14.8 31.5264 14.5432 31.2116 14.3602C30.9168 14.1888 30.5862 14.1206 30.2482 14.0953C29.9732 14.0657 29.6857 14.0603 29.4441 14.0558L29.4106 14.0552L28.6362 14.0405L28.6465 14.815C28.6718 16.7185 28.6135 18.0761 28.3265 19.2282L28.077 20.2297L28.0231 20.2233L27.785 20.6867C27.2069 21.8115 26.2664 22.8351 24.756 24.1598C24.7512 24.164 24.7449 24.1665 24.7384 24.1665H14.8603C14.8543 24.1665 14.8484 24.1644 14.8437 24.1606C13.1888 22.8286 12.2041 21.5403 11.6658 20.0053C11.1151 18.4354 10.991 16.6044 11.0005 14.0326Z" stroke="#11283B" stroke-width="1.5"/>
</g>
<defs>
<linearGradient id="paint0_linear_315_1900" x1="-13.3333" y1="-6.87129e-07" x2="62.0991" y2="68.4019" gradientUnits="userSpaceOnUse">
<stop stop-color="#04C9E4"/>
<stop offset="1" stop-color="#3F75FF"/>
</linearGradient>
<clipPath id="clip0_315_1900">
<rect width="40" height="40" fill="white"/>
</clipPath>
</defs>
</svg>
