<svg width="40" height="40" viewBox="0 0 40 40" fill="none" xmlns="http://www.w3.org/2000/svg">
<g clip-path="url(#clip0_180_112)">
<circle cx="20" cy="20" r="20" fill="url(#paint0_linear_180_112)"/>
<path d="M16.875 18.9583H12.7083C12.156 18.9577 11.6264 18.738 11.2359 18.3475C10.8453 17.9569 10.6256 17.4273 10.625 16.875V12.7083C10.6256 12.156 10.8453 11.6264 11.2359 11.2359C11.6264 10.8453 12.156 10.6256 12.7083 10.625H16.875C17.4273 10.6256 17.9569 10.8453 18.3475 11.2359C18.738 11.6264 18.9577 12.156 18.9583 12.7083V16.875C18.9577 17.4273 18.738 17.9569 18.3475 18.3475C17.9569 18.738 17.4273 18.9577 16.875 18.9583ZM12.7083 12.7083V16.875H16.8762L16.875 12.7083H12.7083Z" fill="#11283B"/>
<path d="M16.875 29.375H12.7083C12.156 29.3744 11.6264 29.1547 11.2359 28.7641C10.8453 28.3736 10.6256 27.844 10.625 27.2917V23.125C10.6256 22.5727 10.8453 22.0431 11.2359 21.6526C11.6264 21.262 12.156 21.0423 12.7083 21.0417H16.875C17.4273 21.0423 17.9569 21.262 18.3475 21.6526C18.738 22.0431 18.9577 22.5727 18.9583 23.125V27.2917C18.9577 27.844 18.738 28.3736 18.3475 28.7641C17.9569 29.1547 17.4273 29.3744 16.875 29.375ZM12.7083 23.125V27.2917H16.8762L16.875 23.125H12.7083Z" fill="#11283B"/>
<path d="M27.2917 18.9583H23.125C22.5727 18.9577 22.0431 18.738 21.6526 18.3475C21.262 17.9569 21.0423 17.4273 21.0417 16.875V12.7083C21.0423 12.156 21.262 11.6264 21.6526 11.2359C22.0431 10.8453 22.5727 10.6256 23.125 10.625H27.2917C27.844 10.6256 28.3736 10.8453 28.7641 11.2359C29.1547 11.6264 29.3744 12.156 29.375 12.7083V16.875C29.3744 17.4273 29.1547 17.9569 28.7641 18.3475C28.3736 18.738 27.844 18.9577 27.2917 18.9583ZM23.125 12.7083V16.875H27.2929L27.2917 12.7083H23.125Z" fill="#11283B"/>
<path d="M21.0417 21.0417H23.125V23.125H21.0417V21.0417Z" fill="#11283B"/>
<path d="M23.125 23.125H25.2083V25.2083H23.125V23.125Z" fill="#11283B"/>
<path d="M25.2083 25.2083H27.2917V27.2916H25.2083V25.2083Z" fill="#11283B"/>
<path d="M21.0417 25.2083H23.125V27.2916H21.0417V25.2083Z" fill="#11283B"/>
<path d="M27.2917 27.2917H29.375V29.375H27.2917V27.2917Z" fill="#11283B"/>
<path d="M23.125 27.2917H25.2083V29.375H23.125V27.2917Z" fill="#11283B"/>
<path d="M27.2917 23.125H29.375V25.2083H27.2917V23.125Z" fill="#11283B"/>
<path d="M25.2083 21.0417H27.2917V23.125H25.2083V21.0417Z" fill="#11283B"/>
</g>
<defs>
<linearGradient id="paint0_linear_180_112" x1="-13.3333" y1="-1.57748e-06" x2="62.0991" y2="68.4019" gradientUnits="userSpaceOnUse">
<stop stop-color="#04C9E4"/>
<stop offset="1" stop-color="#3F75FF"/>
</linearGradient>
<clipPath id="clip0_180_112">
<rect width="40" height="40" fill="white"/>
</clipPath>
</defs>
</svg>
