<svg width="40" height="40" viewBox="0 0 40 40" fill="none" xmlns="http://www.w3.org/2000/svg">
<g clip-path="url(#clip0_180_67)">
<circle cx="20" cy="20" r="20" fill="url(#paint0_linear_180_67)"/>
<g clip-path="url(#clip1_180_67)">
<path d="M24.2312 22.0972L20.9198 19.6136V14.5546C20.9198 14.0459 20.5086 13.6348 20 13.6348C19.4913 13.6348 19.0801 14.0459 19.0801 14.5546V20.0736C19.0801 20.3633 19.2163 20.6366 19.448 20.8095L23.1273 23.569C23.2929 23.6932 23.4861 23.753 23.6783 23.753C23.9589 23.753 24.2348 23.6269 24.4151 23.3841C24.7206 22.9784 24.6378 22.4017 24.2312 22.0972Z" fill="#11283B"/>
<path d="M20 8.125C13.4517 8.125 8.125 13.4517 8.125 20C8.125 26.5483 13.4517 31.875 20 31.875C26.5483 31.875 31.875 26.5483 31.875 20C31.875 13.4517 26.5483 8.125 20 8.125ZM20 30.0353C14.4672 30.0353 9.96465 25.5328 9.96465 20C9.96465 14.4672 14.4672 9.96465 20 9.96465C25.5337 9.96465 30.0353 14.4672 30.0353 20C30.0353 25.5328 25.5328 30.0353 20 30.0353Z" fill="#11283B"/>
</g>
</g>
<defs>
<linearGradient id="paint0_linear_180_67" x1="-13.3333" y1="-1.57748e-06" x2="62.0991" y2="68.4019" gradientUnits="userSpaceOnUse">
<stop stop-color="#04C9E4"/>
<stop offset="1" stop-color="#3F75FF"/>
</linearGradient>
<clipPath id="clip0_180_67">
<rect width="40" height="40" fill="white"/>
</clipPath>
<clipPath id="clip1_180_67">
<rect width="23.75" height="23.75" fill="white" transform="translate(8.125 8.125)"/>
</clipPath>
</defs>
</svg>
