<svg width="40" height="40" viewBox="0 0 40 40" fill="none" xmlns="http://www.w3.org/2000/svg">
<g clip-path="url(#clip0_180_992)">
<circle cx="20" cy="20" r="20" fill="url(#paint0_linear_180_992)"/>
<g clip-path="url(#clip1_180_992)">
<path d="M20 8.125C13.4517 8.125 8.125 13.4517 8.125 20C8.125 26.5483 13.4517 31.875 20 31.875C26.5483 31.875 31.875 26.5483 31.875 20C31.875 13.4517 26.5483 8.125 20 8.125ZM20 30.0353C14.4672 30.0353 9.96465 25.5328 9.96465 20C9.96465 14.4672 14.4672 9.96465 20 9.96465C25.5337 9.96465 30.0353 14.4672 30.0353 20C30.0353 25.5328 25.5328 30.0353 20 30.0353Z" fill="#11283B"/>
<path d="M19.6196 13.6708C19.7393 13.3023 20.2607 13.3023 20.3804 13.6708L21.594 17.406C21.6476 17.5708 21.8012 17.6824 21.9745 17.6824H25.9019C26.2893 17.6824 26.4505 18.1782 26.137 18.406L22.9596 20.7144C22.8195 20.8163 22.7608 20.9968 22.8143 21.1616L24.028 24.8968C24.1477 25.2653 23.7259 25.5718 23.4124 25.344L20.2351 23.0356C20.0949 22.9337 19.9051 22.9337 19.7649 23.0356L16.5876 25.344C16.2741 25.5718 15.8523 25.2653 15.972 24.8968L17.1857 21.1616C17.2392 20.9968 17.1805 20.8163 17.0404 20.7144L13.863 18.406C13.5496 18.1782 13.7107 17.6824 14.0981 17.6824H18.0255C18.1988 17.6824 18.3524 17.5708 18.406 17.406L19.6196 13.6708Z" stroke="#11283B" stroke-width="1.5"/>
</g>
</g>
<defs>
<linearGradient id="paint0_linear_180_992" x1="-13.3333" y1="-1.57748e-06" x2="62.0991" y2="68.4019" gradientUnits="userSpaceOnUse">
<stop stop-color="#04C9E4"/>
<stop offset="1" stop-color="#3F75FF"/>
</linearGradient>
<clipPath id="clip0_180_992">
<rect width="40" height="40" fill="white"/>
</clipPath>
<clipPath id="clip1_180_992">
<rect width="23.75" height="23.75" fill="white" transform="translate(8.125 8.125)"/>
</clipPath>
</defs>
</svg>
