<svg width="68" height="68" viewBox="0 0 68 68" fill="none" xmlns="http://www.w3.org/2000/svg">
<g clip-path="url(#clip0_180_138)">
<circle cx="34" cy="34" r="34" fill="url(#paint0_linear_180_138)"/>
<path d="M44.0938 46.0235H23.9047C18.9947 46.0235 15 42.0288 15 37.1187V24.9453C15 20.0344 18.9953 16.0391 23.9062 16.0391H44.0938C49.0047 16.0391 53 20.0344 53 24.9453V37.1172C53 42.0281 49.0047 46.0235 44.0938 46.0235ZM23.9062 19.0078C20.6323 19.0078 17.9687 21.6713 17.9687 24.9453V37.1187C17.9687 40.3918 20.6316 43.0547 23.9047 43.0547H44.0937C47.3676 43.0547 50.0312 40.3911 50.0312 37.1172V24.9453C50.0312 21.6713 47.3676 19.0078 44.0937 19.0078H23.9062ZM42.6094 50.4766C42.6094 49.6567 41.9448 48.9921 41.1249 48.9921H26.875C26.0552 48.9921 25.3906 49.6567 25.3906 50.4766C25.3906 51.2964 26.0552 51.961 26.875 51.961H41.125C41.9448 51.961 42.6094 51.2964 42.6094 50.4766ZM41.0508 35.9669V26.541C41.8977 26.3691 42.5352 25.6203 42.5352 24.7227C42.5352 23.6979 41.7045 22.8672 40.6797 22.8672C39.782 22.8672 39.0333 23.5047 38.8614 24.3516H29.5097C29.3378 23.5047 28.5891 22.8672 27.6914 22.8672C26.6666 22.8672 25.8359 23.6979 25.8359 24.7227C25.8359 25.6203 26.4734 26.3691 27.3203 26.541V35.9669C26.4734 36.1388 25.8359 36.8875 25.8359 37.7852C25.8359 38.8099 26.6666 39.6406 27.6914 39.6406C28.5891 39.6406 29.3378 39.0032 29.5097 38.1562H38.8614C39.0333 39.0032 39.782 39.6406 40.6797 39.6406C41.7045 39.6406 42.5352 38.8099 42.5352 37.7852C42.5351 36.8875 41.8977 36.1388 41.0508 35.9669ZM38.082 35.1875H30.2891V27.3204H38.082V35.1875Z" fill="#1B1B1B"/>
</g>
<defs>
<linearGradient id="paint0_linear_180_138" x1="-22.6667" y1="-2.68171e-06" x2="105.568" y2="116.283" gradientUnits="userSpaceOnUse">
<stop stop-color="#04C9E4"/>
<stop offset="1" stop-color="#3F75FF"/>
</linearGradient>
<clipPath id="clip0_180_138">
<rect width="68" height="68" fill="white"/>
</clipPath>
</defs>
</svg>
