<svg width="68" height="68" viewBox="0 0 68 68" fill="none" xmlns="http://www.w3.org/2000/svg">
<g clip-path="url(#clip0_180_147)">
<circle cx="34" cy="34" r="34" fill="url(#paint0_linear_180_147)"/>
<g clip-path="url(#clip1_180_147)">
<path d="M40.7699 37.3556L35.4717 33.3819V25.2874C35.4717 24.4735 34.8138 23.8157 33.9999 23.8157C33.186 23.8157 32.5282 24.4735 32.5282 25.2874V34.1178C32.5282 34.5814 32.746 35.0185 33.1169 35.2952L39.0038 39.7104C39.2686 39.9091 39.5778 40.0048 39.8853 40.0048C40.3342 40.0048 40.7757 39.8031 41.0642 39.4146C41.5529 38.7655 41.4205 37.8427 40.7699 37.3556Z" fill="#1B1B1B"/>
<path d="M34 15C23.5228 15 15 23.5228 15 34C15 44.4772 23.5228 53 34 53C44.4772 53 53 44.4772 53 34C53 23.5228 44.4772 15 34 15ZM34 50.0566C25.1476 50.0566 17.9434 42.8524 17.9434 34C17.9434 25.1476 25.1476 17.9434 34 17.9434C42.8539 17.9434 50.0566 25.1476 50.0566 34C50.0566 42.8524 42.8524 50.0566 34 50.0566Z" fill="#1B1B1B"/>
</g>
</g>
<defs>
<linearGradient id="paint0_linear_180_147" x1="-22.6667" y1="-2.68171e-06" x2="105.568" y2="116.283" gradientUnits="userSpaceOnUse">
<stop stop-color="#04C9E4"/>
<stop offset="1" stop-color="#3F75FF"/>
</linearGradient>
<clipPath id="clip0_180_147">
<rect width="68" height="68" fill="white"/>
</clipPath>
<clipPath id="clip1_180_147">
<rect width="38" height="38" fill="white" transform="translate(15 15)"/>
</clipPath>
</defs>
</svg>
