<svg width="68" height="68" viewBox="0 0 68 68" fill="none" xmlns="http://www.w3.org/2000/svg">
<g clip-path="url(#clip0_186_7100)">
<circle cx="34" cy="34" r="34" fill="url(#paint0_linear_186_7100)"/>
<path d="M33.9999 15C24.9185 15 17.5303 22.0894 17.5303 30.8038C17.5303 42.6304 32.6415 52.3825 33.2852 52.7918C33.5032 52.9308 33.7513 53 33.9999 53C34.2481 53 34.4967 52.9303 34.7147 52.7918C35.3584 52.3825 50.4696 42.6304 50.4696 30.8038C50.4696 22.0894 43.0818 15 33.9999 15ZM33.9995 50.0603C31.0745 48.0236 20.1938 39.8345 20.1938 30.8038C20.1938 23.558 26.387 17.6636 33.9999 17.6636C41.6128 17.6636 47.806 23.558 47.806 30.8038C47.806 39.8199 36.9232 48.021 33.9995 50.0603Z" fill="#1B1B1B"/>
<path d="M33.9999 22.2363C29.8629 22.2363 26.4976 25.6017 26.4976 29.7387C26.4976 33.8752 29.8629 37.2405 33.9999 37.2405C38.1368 37.2405 41.5022 33.8752 41.5022 29.7387C41.5022 25.6022 38.1368 22.2363 33.9999 22.2363ZM33.9999 34.5766C31.3319 34.5766 29.1611 32.4062 29.1611 29.7383C29.1611 27.0703 31.3319 24.8995 33.9999 24.8995C36.6679 24.8995 38.8387 27.0699 38.8387 29.7383C38.8387 32.4062 36.6679 34.5766 33.9999 34.5766Z" fill="black"/>
</g>
<defs>
<linearGradient id="paint0_linear_186_7100" x1="-22.6667" y1="-2.68171e-06" x2="105.568" y2="116.283" gradientUnits="userSpaceOnUse">
<stop stop-color="#04C9E4"/>
<stop offset="1" stop-color="#3F75FF"/>
</linearGradient>
<clipPath id="clip0_186_7100">
<rect width="68" height="68" fill="white"/>
</clipPath>
</defs>
</svg>
