<svg width="68" height="68" viewBox="0 0 68 68" fill="none" xmlns="http://www.w3.org/2000/svg">
<g clip-path="url(#clip0_186_7090)">
<circle cx="34" cy="34" r="34" fill="url(#paint0_linear_186_7090)"/>
<path d="M45.7262 51.7381H22.3929C21.1773 51.7381 20.0115 51.2552 19.152 50.3957C18.2925 49.5361 17.8096 48.3704 17.8096 47.1548V20.4881C17.8096 19.2725 18.2925 18.1068 19.152 17.2472C20.0115 16.3877 21.1773 15.9048 22.3929 15.9048H45.7262C46.9418 15.9048 48.1076 16.3877 48.9671 17.2472C49.8267 18.1068 50.3096 19.2725 50.3096 20.4881V47.1548C50.3096 48.3704 49.8267 49.5361 48.9671 50.3957C48.1076 51.2552 46.9418 51.7381 45.7262 51.7381ZM22.3929 18.4048C21.8404 18.4048 21.3105 18.6243 20.9198 19.015C20.5291 19.4057 20.3096 19.9356 20.3096 20.4881V47.1548C20.3096 47.7073 20.5291 48.2372 20.9198 48.6279C21.3105 49.0186 21.8404 49.2381 22.3929 49.2381H45.7262C46.2788 49.2381 46.8087 49.0186 47.1994 48.6279C47.5901 48.2372 47.8096 47.7073 47.8096 47.1548V20.4881C47.8096 19.9356 47.5901 19.4057 47.1994 19.015C46.8087 18.6243 46.2788 18.4048 45.7262 18.4048H22.3929ZM27.3929 27.6215L31.5596 23.4548C31.7327 23.2165 31.8161 22.9247 31.7951 22.6309C31.7741 22.3371 31.65 22.0602 31.4448 21.849C31.2395 21.6377 30.9662 21.5058 30.6732 21.4763C30.3801 21.4469 30.0861 21.5219 29.8429 21.6881L26.5096 25.0215L24.8429 23.3548C24.5995 23.2164 24.3167 23.1637 24.0398 23.2052C23.7629 23.2467 23.508 23.38 23.3158 23.5837C23.1237 23.7873 23.0055 24.0496 22.9802 24.3284C22.9549 24.6073 23.0239 24.8865 23.1762 25.1215L25.7262 27.6215C25.9554 27.8264 26.2521 27.9398 26.5596 27.9398C26.867 27.9398 27.1637 27.8264 27.3929 27.6215ZM45.3096 25.0715C45.3053 24.7413 45.1722 24.4258 44.9387 24.1923C44.7052 23.9588 44.3897 23.8258 44.0596 23.8215H35.7262C35.3947 23.8215 35.0768 23.9531 34.8424 24.1876C34.6079 24.422 34.4762 24.7399 34.4762 25.0715C34.4762 25.403 34.6079 25.7209 34.8424 25.9553C35.0768 26.1898 35.3947 26.3215 35.7262 26.3215H44.0596C44.3897 26.3171 44.7052 26.1841 44.9387 25.9506C45.1722 25.7171 45.3053 25.4016 45.3096 25.0715ZM27.3929 36.7881L31.5596 32.6215C31.7804 32.3845 31.9006 32.0711 31.8949 31.7472C31.8891 31.4234 31.758 31.1144 31.5289 30.8854C31.2999 30.6564 30.9909 30.5252 30.6671 30.5195C30.3433 30.5138 30.0299 30.634 29.7929 30.8548L26.4596 34.1881L24.7929 32.5215C24.5559 32.3007 24.2425 32.1804 23.9187 32.1862C23.5949 32.1919 23.2859 32.3231 23.0569 32.5521C22.8278 32.7811 22.6967 33.0901 22.6909 33.4139C22.6852 33.7377 22.8054 34.0512 23.0262 34.2881L25.7262 36.7881C25.9606 37.0222 26.2783 37.1537 26.6096 37.1537C26.9408 37.1537 27.2585 37.0222 27.4929 36.7881H27.3929ZM45.2596 34.2381C45.2558 33.9163 45.1296 33.608 44.9067 33.3758C44.6839 33.1437 44.381 33.005 44.0596 32.9881H35.7262C35.3947 32.9881 35.0768 33.1198 34.8424 33.3542C34.6079 33.5887 34.4762 33.9066 34.4762 34.2381C34.4762 34.5696 34.6079 34.8876 34.8424 35.122C35.0768 35.3564 35.3947 35.4881 35.7262 35.4881H44.0596C44.3897 35.4838 44.7052 35.3507 44.9387 35.1172C45.1722 34.8837 45.3053 34.5683 45.3096 34.2381H45.2596ZM27.3929 45.9548L31.5596 41.7881C31.6824 41.6737 31.7809 41.5357 31.8492 41.3823C31.9175 41.229 31.9543 41.0635 31.9572 40.8957C31.9602 40.7278 31.9293 40.5611 31.8664 40.4055C31.8036 40.2498 31.71 40.1084 31.5913 39.9897C31.4726 39.871 31.3312 39.7774 31.1756 39.7146C31.0199 39.6517 30.8532 39.6208 30.6854 39.6238C30.5175 39.6268 30.352 39.6635 30.1987 39.7318C30.0453 39.8001 29.9073 39.8986 29.7929 40.0215L26.4596 43.3548L24.7929 41.6881C24.5559 41.4673 24.2425 41.3471 23.9187 41.3528C23.5949 41.3585 23.2859 41.4897 23.0569 41.7187C22.8278 41.9478 22.6967 42.2567 22.6909 42.5806C22.6852 42.9044 22.8054 43.2178 23.0262 43.4548L25.7262 45.9548C25.9606 46.1889 26.2783 46.3204 26.6096 46.3204C26.9408 46.3204 27.2585 46.1889 27.4929 45.9548H27.3929ZM45.2596 43.4048C45.2558 43.083 45.1296 42.7747 44.9067 42.5425C44.6839 42.3103 44.381 42.1717 44.0596 42.1548H35.7262C35.3947 42.1548 35.0768 42.2865 34.8424 42.5209C34.6079 42.7553 34.4762 43.0733 34.4762 43.4048C34.4762 43.7363 34.6079 44.0542 34.8424 44.2887C35.0768 44.5231 35.3947 44.6548 35.7262 44.6548H44.0596C44.3897 44.6505 44.7052 44.5174 44.9387 44.2839C45.1722 44.0504 45.3053 43.735 45.3096 43.4048H45.2596Z" fill="#1B1B1B"/>
</g>
<defs>
<linearGradient id="paint0_linear_186_7090" x1="-22.6667" y1="-2.68171e-06" x2="105.568" y2="116.283" gradientUnits="userSpaceOnUse">
<stop stop-color="#04C9E4"/>
<stop offset="1" stop-color="#3F75FF"/>
</linearGradient>
<clipPath id="clip0_186_7090">
<rect width="68" height="68" fill="white"/>
</clipPath>
</defs>
</svg>
