<svg width="68" height="68" viewBox="0 0 68 68" fill="none" xmlns="http://www.w3.org/2000/svg">
<g clip-path="url(#clip0_180_1334)">
<circle cx="34" cy="34" r="34" fill="url(#paint0_linear_180_1334)"/>
<path d="M28.75 32.25H21.75C20.8221 32.249 19.9324 31.8799 19.2763 31.2237C18.6201 30.5676 18.251 29.6779 18.25 28.75V21.75C18.251 20.8221 18.6201 19.9324 19.2763 19.2763C19.9324 18.6201 20.8221 18.251 21.75 18.25H28.75C29.6779 18.251 30.5676 18.6201 31.2237 19.2763C31.8799 19.9324 32.249 20.8221 32.25 21.75V28.75C32.249 29.6779 31.8799 30.5676 31.2237 31.2237C30.5676 31.8799 29.6779 32.249 28.75 32.25ZM21.75 21.75V28.75H28.7521L28.75 21.75H21.75Z" fill="#1B1B1B"/>
<path d="M28.75 49.75H21.75C20.8221 49.749 19.9324 49.3799 19.2763 48.7237C18.6201 48.0676 18.251 47.1779 18.25 46.25V39.25C18.251 38.3221 18.6201 37.4324 19.2763 36.7763C19.9324 36.1201 20.8221 35.751 21.75 35.75H28.75C29.6779 35.751 30.5676 36.1201 31.2237 36.7763C31.8799 37.4324 32.249 38.3221 32.25 39.25V46.25C32.249 47.1779 31.8799 48.0676 31.2237 48.7237C30.5676 49.3799 29.6779 49.749 28.75 49.75ZM21.75 39.25V46.25H28.7521L28.75 39.25H21.75Z" fill="#1B1B1B"/>
<path d="M46.25 32.25H39.25C38.3221 32.249 37.4324 31.8799 36.7763 31.2237C36.1201 30.5676 35.751 29.6779 35.75 28.75V21.75C35.751 20.8221 36.1201 19.9324 36.7763 19.2763C37.4324 18.6201 38.3221 18.251 39.25 18.25H46.25C47.1779 18.251 48.0676 18.6201 48.7237 19.2763C49.3799 19.9324 49.749 20.8221 49.75 21.75V28.75C49.749 29.6779 49.3799 30.5676 48.7237 31.2237C48.0676 31.8799 47.1779 32.249 46.25 32.25ZM39.25 21.75V28.75H46.2521L46.25 21.75H39.25Z" fill="#1B1B1B"/>
<path d="M35.75 35.75H39.25V39.25H35.75V35.75Z" fill="#1B1B1B"/>
<path d="M39.25 39.25H42.75V42.75H39.25V39.25Z" fill="#1B1B1B"/>
<path d="M42.75 42.75H46.25V46.25H42.75V42.75Z" fill="#1B1B1B"/>
<path d="M35.75 42.75H39.25V46.25H35.75V42.75Z" fill="#1B1B1B"/>
<path d="M46.25 46.25H49.75V49.75H46.25V46.25Z" fill="#1B1B1B"/>
<path d="M39.25 46.25H42.75V49.75H39.25V46.25Z" fill="#1B1B1B"/>
<path d="M46.25 39.25H49.75V42.75H46.25V39.25Z" fill="#1B1B1B"/>
<path d="M42.75 35.75H46.25V39.25H42.75V35.75Z" fill="#1B1B1B"/>
</g>
<defs>
<linearGradient id="paint0_linear_180_1334" x1="-22.6667" y1="-2.68171e-06" x2="105.568" y2="116.283" gradientUnits="userSpaceOnUse">
<stop stop-color="#04C9E4"/>
<stop offset="1" stop-color="#3F75FF"/>
</linearGradient>
<clipPath id="clip0_180_1334">
<rect width="68" height="68" fill="white"/>
</clipPath>
</defs>
</svg>
