<svg width="1440" height="823" viewBox="0 0 1440 823" fill="none" xmlns="http://www.w3.org/2000/svg">
<path d="M-30.2783 200.76C33.8327 191.558 204.337 162.52 373.465 119.984C584.876 66.8144 1053.69 -10.3383 1331.59 2.6442C1553.9 13.0302 1578.89 12.9776 1563.6 11.6531C1373.57 3.36118 909.031 28.7636 571.064 196.708C233.096 364.653 1.12998 506.865 -72.6073 556.977C-37.3757 557.615 61.3698 547.493 174.499 501.905C315.91 444.921 441.443 415.781 779.644 343.458C1044.9 286.734 1307.51 166.3 1458.51 93.0645L1447.78 369.401C1297.28 453.434 1078.72 558.852 768.255 636.758C441.185 718.829 30.6939 719.331 -82.8896 821.786" stroke="#252C44" stroke-linejoin="round"/>
</svg>
